<svg width="58" height="80" viewBox="0 0 58 80" fill="none" xmlns="http://www.w3.org/2000/svg">
<path d="M23.6166 35.4022C22.395 32.9139 21.136 30.3238 20.9122 26.7609C20.7853 23.1173 21.1636 19.4736 22.0313 15.9819C23.5233 9.82893 25.6682 3.39319 29.072 0C31.2728 2.26212 32.9607 6.13035 34.2942 10.27C35.8609 15.1223 37.3716 20.4496 37.0173 26.8853C36.8214 30.4934 35.6464 32.6877 34.4155 35.1308C34.6859 34.8141 35.2081 34.6105 35.4506 34.2372C39.1062 31.5114 42.3048 28.0277 48.0959 28.5254C50.6283 28.7355 53.0141 30.0425 54.8183 32.208C56.6226 34.3735 57.7251 37.2533 57.9249 40.3224C58.1131 42.1539 57.9464 44.0134 57.4381 45.753C56.9298 47.4927 56.0938 49.0645 54.9967 50.3436C51.6302 54.0987 42.9296 54.2457 41.7173 48.0814C45.8391 49.0315 50.1661 46.9504 49.2429 40.9784C48.9935 40.0974 48.6213 39.2749 48.1425 38.5466C41.9131 32.4728 33.8279 42.8107 33.2964 50.0834C33.2964 50.6263 33.5295 50.9883 33.5109 51.3502C33.4922 51.7121 33.1285 52.255 33.0912 52.7527C33.0412 53.918 33.2202 55.081 33.6135 56.1459C34.602 59.0188 37.3437 63.0454 41.2417 62.9323C41.8684 62.7993 42.4314 62.3866 42.8198 61.7753C43.2082 61.164 43.3937 60.3985 43.3399 59.6296C43.0066 58.9816 42.5328 58.4574 41.9702 58.1143C41.4077 57.7711 40.7782 57.6223 40.1506 57.6841C39.9454 57.2204 41.4375 56.1572 42.1369 56.0328C46.7157 55.2524 47.9374 63.7127 45.0651 66.8118C40.2905 70.8723 35.0496 64.7646 32.7276 61.2357C33.6041 63.4978 35.6278 65.9409 35.0309 68.9721C34.6672 70.8497 33.2405 71.7093 32.4198 73.2815C31.3847 74.4125 30.6759 76.6068 30.0045 77.0819C30.2003 77.6361 29.3051 78.8463 29.072 80C28.1394 78.3939 27.524 76.505 26.3489 74.5483C25.0061 72.2862 22.6654 70.7253 22.8985 67.3208C23.0664 64.9003 24.4652 63.1811 25.0993 61.4845C23.1503 63.7466 20.6511 67.8071 16.837 68.203C13.312 68.5763 11.1578 65.5337 11.2977 61.3601C11.3909 58.6682 12.8457 55.7727 15.5874 56.0328C16.0493 56.0725 16.4973 56.2424 16.8956 56.5291C17.2938 56.8158 17.6314 57.2113 17.8814 57.6841C14.4683 57.0394 13.7316 62.2649 16.7344 62.887C20.6884 63.7014 23.2622 58.3628 24.5771 55.784C24.9408 54.2457 25.0341 52.3908 24.1575 51.4746C24.2694 50.9317 24.6704 50.7507 24.6797 50.0721C24.2239 46.666 22.9226 43.5095 20.9495 41.0236C19.1497 38.7615 16.865 36.3523 13.4891 36.5898C9.8429 36.8613 6.96134 41.6004 9.41393 45.7175C10.2517 46.8395 11.3407 47.6413 12.5479 48.0249C13.7552 48.4085 15.0285 48.3574 16.2122 47.8778C14.7574 55.0601 5.22681 53.6802 1.99088 49.1446C0.635561 46.9069 -0.0636495 44.1836 0.00455627 41.4082C0.00455627 33.5812 5.08691 27.8354 12.3421 28.4688C16.0723 28.7968 19.2709 31.5227 21.6676 33.5473C22.2745 34.0511 22.851 34.6067 23.3928 35.2099" fill="#D4B185"/>
</svg>
