<svg xmlns="http://www.w3.org/2000/svg" viewBox="0 0 743.26 248.74"><defs><style>.cls-1{fill:#fff;}</style></defs><title>Asset 1</title><g id="Layer_2" data-name="Layer 2"><g id="Layer_1-2" data-name="Layer 1"><polygon class="cls-1" points="243.81 242.51 223.7 242.51 223.7 229.47 237.06 229.47 237.06 232.41 226.65 232.41 226.65 239.57 243.76 239.57 243.76 222.16 222.16 222.16 222.16 223.73 242.19 223.73 242.19 237.99 228.23 237.99 228.23 233.99 238.64 233.99 238.64 227.89 222.12 227.89 222.12 244.1 243.81 244.1 243.81 242.51"/><polygon class="cls-1" points="263.76 233.99 263.76 227.89 247.25 227.89 247.25 244.1 268.94 244.1 268.94 242.51 248.83 242.51 248.83 229.47 262.19 229.47 262.19 232.41 251.78 232.41 251.78 239.57 268.89 239.57 268.89 222.16 247.29 222.16 247.29 223.73 267.31 223.73 267.31 237.99 253.36 237.99 253.36 233.99 263.76 233.99"/><polygon class="cls-1" points="288.89 233.99 288.89 227.89 272.38 227.89 272.38 244.1 294.07 244.1 294.07 242.51 273.96 242.51 273.96 229.47 287.31 229.47 287.31 232.41 276.91 232.41 276.91 239.57 294.02 239.57 294.02 222.16 272.42 222.16 272.42 223.73 292.44 223.73 292.44 237.99 278.49 237.99 278.49 233.99 288.89 233.99"/><polygon class="cls-1" points="314.02 233.99 314.02 227.89 297.51 227.89 297.51 244.1 319.2 244.1 319.2 242.51 299.09 242.51 299.09 229.47 312.45 229.47 312.45 232.41 302.04 232.41 302.04 239.57 319.15 239.57 319.15 222.16 297.55 222.16 297.55 223.73 317.57 223.73 317.57 237.99 303.62 237.99 303.62 233.99 314.02 233.99"/><polygon class="cls-1" points="339.15 233.99 339.15 227.89 322.64 227.89 322.64 244.1 344.33 244.1 344.33 242.51 324.22 242.51 324.22 229.47 337.57 229.47 337.57 232.41 327.17 232.41 327.17 239.57 344.28 239.57 344.28 222.16 322.68 222.16 322.68 223.73 342.7 223.73 342.7 237.99 328.75 237.99 328.75 233.99 339.15 233.99"/><polygon class="cls-1" points="364.28 233.64 364.28 227.53 347.77 227.53 347.77 243.75 369.46 243.75 369.46 242.16 349.35 242.16 349.35 229.11 362.7 229.11 362.7 232.06 352.3 232.06 352.3 239.22 369.41 239.22 369.41 221.81 347.81 221.81 347.81 223.38 367.83 223.38 367.83 237.64 353.88 237.64 353.88 233.64 364.28 233.64"/><polygon class="cls-1" points="389.94 233.99 389.94 227.89 373.43 227.89 373.43 244.1 395.12 244.1 395.12 242.51 375.01 242.51 375.01 229.47 388.36 229.47 388.36 232.41 377.95 232.41 377.95 239.57 395.07 239.57 395.07 222.16 373.47 222.16 373.47 223.73 393.49 223.73 393.49 237.99 379.54 237.99 379.54 233.99 389.94 233.99"/><polygon class="cls-1" points="415.07 233.99 415.07 227.89 398.56 227.89 398.56 244.1 420.25 244.1 420.25 242.51 400.14 242.51 400.14 229.47 413.49 229.47 413.49 232.41 403.09 232.41 403.09 239.57 420.2 239.57 420.2 222.16 398.6 222.16 398.6 223.73 418.62 223.73 418.62 237.99 404.66 237.99 404.66 233.99 415.07 233.99"/><polygon class="cls-1" points="440.2 233.99 440.2 227.89 423.69 227.89 423.69 244.1 445.38 244.1 445.38 242.51 425.27 242.51 425.27 229.47 438.62 229.47 438.62 232.41 428.21 232.41 428.21 239.57 445.33 239.57 445.33 222.16 423.73 222.16 423.73 223.73 443.75 223.73 443.75 237.99 429.79 237.99 429.79 233.99 440.2 233.99"/><polygon class="cls-1" points="465.33 233.99 465.33 227.89 448.82 227.89 448.82 244.1 470.51 244.1 470.51 242.51 450.4 242.51 450.4 229.47 463.75 229.47 463.75 232.41 453.34 232.41 453.34 239.57 470.46 239.57 470.46 222.16 448.85 222.16 448.85 223.73 468.88 223.73 468.88 237.99 454.92 237.99 454.92 233.99 465.33 233.99"/><polygon class="cls-1" points="490.46 233.99 490.46 227.89 473.95 227.89 473.95 244.1 495.64 244.1 495.64 242.51 475.52 242.51 475.52 229.47 488.88 229.47 488.88 232.41 478.48 232.41 478.48 239.57 495.59 239.57 495.59 222.16 473.98 222.16 473.98 223.73 494.01 223.73 494.01 237.99 480.05 237.99 480.05 233.99 490.46 233.99"/><polygon class="cls-1" points="515.59 233.64 515.59 227.53 499.08 227.53 499.08 243.75 520.77 243.75 520.77 242.16 500.66 242.16 500.66 229.11 514.01 229.11 514.01 232.06 503.6 232.06 503.6 239.22 520.72 239.22 520.72 221.81 499.11 221.81 499.11 223.38 519.14 223.38 519.14 237.64 505.18 237.64 505.18 233.64 515.59 233.64"/><polygon class="cls-1" points="375.18 217.51 373.43 217.51 222.12 217.51 222.12 219.1 373.43 219.1 377.63 219.1 521.13 219.1 521.13 217.51 375.18 217.51"/><polygon class="cls-1" points="373.43 247.16 222.12 247.16 222.12 248.74 373.43 248.74 377.63 248.74 520.91 248.74 520.91 247.16 375.03 247.16 373.43 247.16"/><path class="cls-1" d="M90.09,110.67a61.45,61.45,0,0,1,6.64-1.14l.16.33a122.73,122.73,0,0,1-2.35,12.87l-1.29.64c-.73-2-2.92-8.41-3.32-9.79l-14.17.65V134.3c0,20.8.41,23,.49,25.33l9.47,2.51L85,164.08c-4.21,0-8.5-.08-12.71-.08-4.37,0-8.66.08-13.11.08l.57-1.94,8.58-2.51c.16-2.75.24-4.53.24-22.66V114.23l-13.27-.65c-1,2.1-3.89,7.77-4.94,9.39l-1.29.4c-.16-3-.16-11,0-13.51l.24-.33c1.21.16,4.61.81,6.15,1.14Z"/><path class="cls-1" d="M102.59,125.64c2.09,0,4.54.06,6.69.06s4-.06,5.53-.06l-.41,1.4-2.5,1.8v13.21h20.26V128.9l-2.85-2,.46-1.22c1.69,0,3.32.06,5,.06,2.74,0,5.41-.06,7.68-.06l-.46,1.45-4.66,1.75v15.31c0,6.58.18,15.89.41,16.59l5.35,1.86-.52,1.46c-2.33,0-5.12-.06-7.8-.06-2,0-3.78.06-5.41.06l.4-1.46,2.33-1.8c.18-5.71.06-10.77.06-16.24a58.78,58.78,0,0,1-7.51.35H111.9c0,4.77-.17,9.66.06,15.66l2.68,2.15-.47,1.34c-1.51,0-3.08-.06-5.06-.06-2.51,0-5.3.06-7.63.06l.53-1.4,4.36-1.74c.06-1.46.35-10,.35-17.12V128.72L102.06,127Z"/><path class="cls-1" d="M147.23,125.58c2.39,0,4.84.06,7.17.06h14.43a33,33,0,0,1,4.83-.64l.18.17c-.12,1.57-1.11,6.64-1.52,8.44l-.93.53c-.64-1.4-2-5-2.5-6.29l-11.82.47v14.55c5.42,0,11.18-.35,14.79-.7l.23.52c-.23.53-2.79,3.38-3.49,3.38-.93,0-9.9-.64-11.53-.64,0,3.84,0,11,.24,15.83l12.34.47c1.22-1.63,3.72-5.36,5.06-6.87l1.17-.06a70.4,70.4,0,0,1-2,9.38c-3.79-.18-7.16-.18-10.54-.18h-9.2c-2.62,0-5.53.06-8,.06l.47-1.4,4.94-1.69c.18-.7.35-7.16.35-16.94V128.55l-5.06-1.63Z"/><path class="cls-1" d="M230.06,138.18c4.29-.32,17.65-.73,22.18-.64-1,8.74-3.8,25.73-4.77,27.76h-.57c-2.43-.49-3.72-1.78-4.05-2.76a37.42,37.42,0,0,1-13.19,3c-17.24,0-29.54-10.85-29.54-27.92,0-16,12.95-28.41,31.16-28.41,6.31,0,10.36,1.7,13,3.48a25.09,25.09,0,0,1,6.23-3.08l.57.41c-.25,2.91-2.51,12.14-3.4,13.92l-1.54.73a65.27,65.27,0,0,1-2.67-9.15,22.82,22.82,0,0,0-11.09-2.67c-14,0-24,9.63-24,24.52,0,13.11,8.41,24.12,24.27,24.12a30,30,0,0,0,9.88-1.62c.24-5.82.89-12.78,1.29-17.8l-17.07-.49-.33-1Z"/><path class="cls-1" d="M259.57,126.45a83.52,83.52,0,0,1,13.68-1.16c9.55,0,14.26,3.32,14.26,9.78,0,6.23-4.95,8.85-9.14,10.24v.12c1.28,2.15,5.65,8.38,8.91,12.69s4.25,5.36,5,6.35l-.41.46a12.47,12.47,0,0,1-9.37-4.6A128.66,128.66,0,0,1,272.09,146l.17-.35c5.47-1.45,9.66-3.84,9.66-9.72,0-7.27-6-8.55-12.75-8.38v17.87c0,8-.05,12.46.12,15.37l5.71,1.86-.41,1.4c-2.8,0-5.47-.06-8.27-.06-2.5,0-5,.06-7.51.06l.41-1.4,4.37-1.8c.11-2.21.4-7.75.4-15.37V128.61l-4.94-.7Z"/><path class="cls-1" d="M295.89,125.58c2.39,0,4.83.06,7.16.06h14.44a32.84,32.84,0,0,1,4.83-.64l.18.17c-.12,1.57-1.11,6.64-1.52,8.44l-.93.53c-.64-1.4-2-5-2.5-6.29l-11.82.47v14.55c5.41,0,11.18-.35,14.79-.7l.23.52c-.23.53-2.8,3.38-3.49,3.38-.94,0-9.9-.64-11.53-.64,0,3.84,0,11,.23,15.83l12.34.47c1.23-1.63,3.73-5.36,5.07-6.87l1.16-.06a68.81,68.81,0,0,1-2,9.38c-3.79-.18-7.16-.18-10.54-.18h-9.2c-2.62,0-5.53.06-8,.06l.46-1.4L300.2,161c.17-.7.35-7.16.35-16.94V128.55l-5.07-1.63Z"/><path class="cls-1" d="M329.25,125.58c2.38,0,4.83.06,7.16.06h14.43a33.18,33.18,0,0,1,4.84-.64l.17.17c-.12,1.57-1.11,6.64-1.51,8.44l-.94.53c-.63-1.4-2-5-2.5-6.29l-11.82.47v14.55c5.42,0,11.18-.35,14.79-.7l.23.52c-.23.53-2.79,3.38-3.49,3.38-.93,0-9.9-.64-11.53-.64,0,3.84,0,11,.24,15.83l12.34.47c1.22-1.63,3.72-5.36,5.06-6.87l1.17-.06a70.4,70.4,0,0,1-2,9.38c-3.78-.18-7.16-.18-10.54-.18h-9.19c-2.62,0-5.53.06-8,.06l.47-1.4,4.95-1.69c.17-.7.34-7.16.34-16.94V128.55l-5.06-1.63Z"/><path class="cls-1" d="M363.07,125.58c2.21,0,4.42.06,6.63.06,2.45,0,4.89-.06,7.4-.06l-.41,1.34-4.25,1.8V144c0,9.67.17,15.9.29,16.89l5.36,1.74-.41,1.4c-2.33,0-5-.06-8.15-.06-2.74,0-5.53.06-7.63.06l.35-1.4,4.66-1.74c.23-1,.35-7.22.35-16.89V128.67l-4.6-1.81Zm35.1,1.51c-1.63.47-4.43,1.11-6.17,1.63a5.16,5.16,0,0,0-1.92,1.17c-2.33,2.27-5,5.18-11.24,12.46v.11c4.31,5.12,8.79,10.07,13,14.61,4.31,4.72,6.17,6.46,7.05,7.51l-.7.29c-5.53-.23-8.21-2.21-11-5.06-3.09-3.09-8.21-8.62-13.22-14.67v-.47c8.15-9.31,11.7-13.38,13.8-16.59a12.55,12.55,0,0,1-.12-2.56c4.54-.23,9.49.12,11.3.12Z"/><path class="cls-1" d="M422.35,110.67c2.75,0,6,.08,9.63.08s6.88-.08,10-.08l-.73,1.94L435.63,115v21.12c0,12.87.16,22.66.32,24l17.32,1c2-3.08,5.74-8.58,7.53-10.6l1.53-.09a86.22,86.22,0,0,1-2.75,13.84c-2.83,0-9.47-.32-27.44-.32-3.88,0-7.76.08-11.33.08l.57-1.86,6.72-2.43c.16-1,.32-10.92.32-23.55V115l-6.71-2.43Z"/><path class="cls-1" d="M467,125.64c2.27,0,4.54.06,6.81.06s4.83-.06,7.22-.06l-.4,1.4-4.25,1.68V144c0,9.67.17,15.9.29,16.89l5.35,1.74-.41,1.4c-2.21,0-4.77-.06-7.8-.06s-5.7.06-8,.06l.41-1.4,4.59-1.74c.24-.94.35-7.22.35-16.89V128.67L466.6,127Z"/><path class="cls-1" d="M486.74,125.58c2.09,0,4.36.06,6.52.06H508a47,47,0,0,1,4.72-.7l.17.17c-.06,1.17-1,7.11-1.34,8.68l-1,.58c-1-2.33-1.75-4.42-2.45-6.52l-11.82.47V143.8a135,135,0,0,0,15.14-.76l.23.59c-.23.52-2.85,3.37-3.32,3.37-1.33,0-10.3-.64-12-.64,0,10.07.12,12.87.24,14.44l6.46,1.86-.47,1.4c-2.32,0-5.41-.06-8.73-.06-2.39,0-4.83.06-7.39.06l.35-1.34,4.13-1.92c.17-.82.23-6.06.23-16.71V128.55l-4.83-1.69Z"/><path class="cls-1" d="M517.3,125.58c2.38,0,4.83.06,7.16.06h14.43a33,33,0,0,1,4.83-.64l.18.17c-.12,1.57-1.11,6.64-1.51,8.44l-.93.53c-.65-1.4-2-5-2.51-6.29l-11.82.47v14.55c5.42,0,11.18-.35,14.79-.7l.23.52c-.23.53-2.79,3.38-3.49,3.38-.93,0-9.9-.64-11.53-.64,0,3.84,0,11,.24,15.83l12.34.47c1.22-1.63,3.72-5.36,5.06-6.87l1.17-.06a70.4,70.4,0,0,1-2,9.38c-3.78-.18-7.16-.18-10.54-.18h-9.19c-2.62,0-5.54.06-8,.06l.47-1.4L521.6,161c.18-.7.35-7.16.35-16.94V128.55l-5.06-1.63Z"/><path class="cls-1" d="M570.83,110.67c3.15,0,6.31.08,9.47.08,3.32,0,6.72-.08,10-.08l-.56,1.94L583.86,115v21.28c0,13.44.24,22.1.4,23.47l7.45,2.43-.57,1.94c-3.07,0-6.63-.08-10.84-.08-4,0-7.93.08-11.09.08l.57-1.94,6.39-2.43c.32-1.29.49-10,.49-23.47V114.87l-6.4-2.34Z"/><path class="cls-1" d="M609.15,164.06c-2.27,0-4.43-.06-6.93-.06-2.1,0-4.6.06-6.69.06l.35-1.4,4.77-2.09c.17-2.51.75-12.11,1.05-29.11-2.33-3.49-2.74-3.26-6.35-4.42l.53-1.4,8-.29a20.83,20.83,0,0,0,2.21,3.32c7.69,9.66,15.89,19.09,23.69,27.88h.18c0-2.62-.35-23.87-.35-27.53l-5-2,.58-1.34c2.16,0,4.08.06,5.88.06,2.21,0,4.83-.06,7.11-.06l-.35,1.51-5,1.87c-.06,2.61-.53,19.21-.64,30,0,1.87-.12,4.54-.29,5.94l-.64.29C626.2,161.56,615.9,149,604,134.08h-.11c-.06,9.9.06,24,.41,26.49l5.29,2.09Z"/><path class="cls-1" d="M664.1,124.59a17.42,17.42,0,0,1,9.08,2.21,15.3,15.3,0,0,1,4.42-1.69l.35.24a45.52,45.52,0,0,1-2.33,9.37l-1,.58a38.08,38.08,0,0,1-2-6.46,15.25,15.25,0,0,0-7.34-1.75c-10.94,0-17.35,7.63-17.35,17.76,0,10,6.76,17.52,18,17.52a11.37,11.37,0,0,0,3.84-.47,82.23,82.23,0,0,1,6.81-6.57l1.34.29c-.46,1.8-3.2,7-3.95,7.62a30.17,30.17,0,0,1-10.07,1.87c-10.89,0-21.89-6.06-21.89-20s12.11-20.55,22-20.55Z"/><path class="cls-1" d="M689.1,154.13c1.29.56,3.88,3.4,4.77,5.18l-.24.72a13.61,13.61,0,0,1-4.78,5l-.64.25a15.52,15.52,0,0,1-4.7-5l.24-.81a17.43,17.43,0,0,1,4.86-5.1Z"/><path class="cls-1" d="M369.7,31.3c-1.31-2.2-2.66-4.49-2.9-7.64A28.81,28.81,0,0,1,368,14.13C369.6,8.69,371.9,3,375.55,0c2.36,2,4.17,5.42,5.6,9.08,1.68,4.29,3.3,9,2.92,14.69-.21,3.19-1.47,5.13-2.79,7.29h0c.29-.28.85-.46,1.11-.79,3.92-2.41,7.35-5.49,13.56-5.05a11.35,11.35,0,0,1,10.54,10.43,10.49,10.49,0,0,1-3.14,8.86c-3.61,3.32-12.94,3.45-14.24-2,4.42.84,9.06-1,8.07-6.28A7.2,7.2,0,0,0,396,34.08c-6.68-5.37-15.35,3.77-15.92,10.2,0,.48.25.8.23,1.12s-.41.8-.45,1.24a6.51,6.51,0,0,0,.56,3c1.06,2.54,4,6.1,8.18,6a2.73,2.73,0,0,0,2.25-2.92A3.68,3.68,0,0,0,387.43,51c-.22-.41,1.38-1.35,2.13-1.46,4.91-.69,6.22,6.79,3.14,9.53-5.12,3.59-10.74-1.81-13.23-4.93.94,2,3.11,4.16,2.47,6.84-.39,1.66-1.92,2.42-2.8,3.81-1.11,1-1.87,2.94-2.59,3.36.21.49-.75,1.56-1,2.58-1-1.42-1.66-3.09-2.92-4.82-1.44-2-3.95-3.38-3.7-6.39.18-2.14,1.68-3.66,2.36-5.16-2.09,2-4.77,5.59-8.86,5.94-3.78.33-6.09-2.36-5.94-6.05.1-2.38,1.66-4.94,4.6-4.71A3.19,3.19,0,0,1,363.55,51c-3.66-.57-4.45,4.05-1.23,4.6,4.24.72,7-4,8.41-6.28.39-1.36.49-3-.45-3.81.12-.48.55-.64.56-1.24a15,15,0,0,0-4-8c-1.93-2-4.38-4.13-8-3.92-3.91.24-7,4.43-4.37,8.07a6.89,6.89,0,0,0,7.29,1.91c-1.56,6.35-11.78,5.13-15.25,1.12a11,11,0,0,1-2.13-6.84c0-6.92,5.45-12,13.23-11.44,4,.29,7.43,2.7,10,4.49a16.6,16.6,0,0,1,1.85,1.47"/><path class="cls-1" d="M375.46,0c2.36,2,4.17,5.42,5.6,9.08,1.68,4.29,3.3,9,2.92,14.69-.22,3.19-1.47,5.13-2.79,7.29h0c.29-.28.86-.46,1.11-.79,3.92-2.41,7.35-5.49,13.56-5.05A11.34,11.34,0,0,1,406.4,35.65a10.49,10.49,0,0,1-3.14,8.86c-3.61,3.32-12.94,3.45-14.24-2,4.42.84,9.07-1,8.07-6.28a7.43,7.43,0,0,0-1.23-2.13c-6.68-5.37-15.35,3.77-15.92,10.2,0,.48.25.8.23,1.12s-.41.8-.45,1.24a6.51,6.51,0,0,0,.56,3c1.06,2.54,4,6.1,8.18,6a2.73,2.73,0,0,0,2.25-2.92A3.68,3.68,0,0,0,387.34,51c-.22-.41,1.38-1.35,2.13-1.46,4.91-.69,6.21,6.79,3.14,9.53-5.12,3.59-10.74-1.81-13.23-4.93.94,2,3.1,4.16,2.47,6.84-.4,1.66-1.92,2.42-2.81,3.81-1.1,1-1.87,2.94-2.58,3.36.2.49-.75,1.56-1,2.58"/><polyline class="cls-1" points="375.49 45.09 375.49 53.5 380.42 45.09 375.49 45.09 375.49 53.5"/><polyline class="cls-1" points="375.43 45.09 375.43 53.5 370.49 45.09 375.43 45.09 375.43 53.5"/><polyline class="cls-1" points="375.43 45.09 375.43 36.67 370.49 45.09 375.43 45.09 375.43 36.67"/><polyline class="cls-1" points="375.49 45.09 375.49 36.67 380.42 45.09 375.49 45.09 375.49 36.67"/><path class="cls-1" d="M271.21,55.47a3.42,3.42,0,0,1-.25,1.24A4.55,4.55,0,0,1,270.2,58a4,4,0,0,1-1.29,1,4.06,4.06,0,0,1-1.79.38,5,5,0,0,1-2-.44,4.46,4.46,0,0,1-1.68-1.31,5.26,5.26,0,0,0-.39,1.28h-.86V54.53H263a8.39,8.39,0,0,0,.65,1.76,4,4,0,0,0,1.16,1.41,2.87,2.87,0,0,0,1.85.6,2.21,2.21,0,0,0,1.53-.53,1.8,1.8,0,0,0,.39-2.1,2,2,0,0,0-.51-.6,5.76,5.76,0,0,0-.92-.57c-.39-.2-.84-.42-1.33-.64A11.29,11.29,0,0,1,264,52.77a5.53,5.53,0,0,1-1.12-1.07,3.65,3.65,0,0,1-.52-1,3.08,3.08,0,0,1-.15-.94,3.49,3.49,0,0,1,.46-1.68A3.71,3.71,0,0,1,264,46.73a3.92,3.92,0,0,1,2-.52,3.85,3.85,0,0,1,1.7.39,4.45,4.45,0,0,1,1.39,1.09,6.44,6.44,0,0,0,.31-1.1h.87v3.53h-.87c-.63-1.92-1.71-2.89-3.26-2.89a2,2,0,0,0-1.35.45,1.48,1.48,0,0,0-.5,1.14,1.51,1.51,0,0,0,.31,1,2.8,2.8,0,0,0,.84.7c.35.19.9.47,1.68.83a22.7,22.7,0,0,1,2.19,1.15,4.7,4.7,0,0,1,1.33,1.22A2.89,2.89,0,0,1,271.21,55.47Z"/><path class="cls-1" d="M280.75,59.1h-6.43v-.86a3.72,3.72,0,0,0,1.21-.15.88.88,0,0,0,.54-.46,2.3,2.3,0,0,0,.13-.88v-8a1.62,1.62,0,0,0-.34-1.16,2.32,2.32,0,0,0-1.54-.34v-.86h6.43v.86a3.48,3.48,0,0,0-1.22.16.88.88,0,0,0-.53.46,2.27,2.27,0,0,0-.13.88v8a2.44,2.44,0,0,0,.12.85.9.9,0,0,0,.52.47,3.21,3.21,0,0,0,1.24.17Z"/><path class="cls-1" d="M297.29,47.29a3.35,3.35,0,0,0-1.3.18.82.82,0,0,0-.49.54,5.26,5.26,0,0,0-.09,1.16v10h-.86l-8.29-9.84v7a4.6,4.6,0,0,0,.1,1.15.84.84,0,0,0,.5.55,3.2,3.2,0,0,0,1.3.19v.86h-4.71v-.86a2.86,2.86,0,0,0,1.22-.19.83.83,0,0,0,.46-.55,5.27,5.27,0,0,0,.09-1.15V49.88a11.66,11.66,0,0,0,0-1.18A1.75,1.75,0,0,0,285,48a1.16,1.16,0,0,0-.52-.48,2.84,2.84,0,0,0-1-.25v-.86h3.69L294.37,55V49.17a4.37,4.37,0,0,0-.1-1.09.89.89,0,0,0-.48-.58,2.72,2.72,0,0,0-1.23-.21v-.86h4.73Z"/><path class="cls-1" d="M312.45,59h-.88a4.26,4.26,0,0,0-.64-1.44,7.51,7.51,0,0,1-1.63,1.27,4.88,4.88,0,0,1-2.48.54,6.27,6.27,0,0,1-3.17-.84,6.18,6.18,0,0,1-2.33-2.32,6.52,6.52,0,0,1-.87-3.36,7,7,0,0,1,.47-2.53,6.61,6.61,0,0,1,1.35-2.12,6.36,6.36,0,0,1,2.08-1.44,6.6,6.6,0,0,1,2.65-.52,5.32,5.32,0,0,1,3.93,1.55,6.45,6.45,0,0,0,.4-1.17h.84l.15,4.66h-.9a5.59,5.59,0,0,0-.88-2.11A4.3,4.3,0,0,0,309,47.73a3.64,3.64,0,0,0-1.82-.5,3.33,3.33,0,0,0-1.92.59A3.83,3.83,0,0,0,304,49.6a8.05,8.05,0,0,0-.48,3,8.83,8.83,0,0,0,.4,2.89,4.46,4.46,0,0,0,1,1.74,3.12,3.12,0,0,0,1.19.8,3.39,3.39,0,0,0,1.12.21,3.67,3.67,0,0,0,2.07-.61,5.23,5.23,0,0,0,1.51-1.56,5.78,5.78,0,0,0,.78-1.86h.9Z"/><path class="cls-1" d="M327.43,54.93l-.11,4.17H316v-.86a2.31,2.31,0,0,0,1.5-.33,1.64,1.64,0,0,0,.34-1.16v-8a2.69,2.69,0,0,0-.11-.85.87.87,0,0,0-.51-.48,3.33,3.33,0,0,0-1.22-.17v-.86h10.51l.17,3.29h-.86a4.46,4.46,0,0,0-.67-1.56,1.51,1.51,0,0,0-.85-.58,6.37,6.37,0,0,0-1.42-.11h-2.37v4.47h1.29a3.13,3.13,0,0,0,1-.11.76.76,0,0,0,.46-.45,3.84,3.84,0,0,0,.17-1h.9v4.21h-.86a2.89,2.89,0,0,0-.19-1,.8.8,0,0,0-.47-.45,3.33,3.33,0,0,0-1-.11h-1.31v3a9.93,9.93,0,0,0,0,1.1,1.11,1.11,0,0,0,.2.57.93.93,0,0,0,.53.33,4.07,4.07,0,0,0,1.05.1h1a4.51,4.51,0,0,0,1.23-.16,2.37,2.37,0,0,0,1.14-.84,4.34,4.34,0,0,0,.79-2.13Z"/><path class="cls-1" d="M437.32,57.48l-.42,2.33h-.79a1.56,1.56,0,0,0,.05-.33c0-.25-.15-.38-.47-.38h-6.16v-.88A27.32,27.32,0,0,0,432,55.65a16.09,16.09,0,0,0,2-2.95,6.31,6.31,0,0,0,.79-2.9,2.8,2.8,0,0,0-.28-1.32,1.89,1.89,0,0,0-.74-.79,2,2,0,0,0-1-.26,1.82,1.82,0,0,0-.89.23,1.73,1.73,0,0,0-.62.61,1.61,1.61,0,0,0-.23.81,3.1,3.1,0,0,0,.39,1.28.29.29,0,0,1,0,.09s-.13.13-.39.23l-.61.26a2.06,2.06,0,0,1-.36.13c-.1,0-.21-.17-.34-.51a2.8,2.8,0,0,1-.2-1.1,2.76,2.76,0,0,1,.42-1.5,3,3,0,0,1,1.29-1.05,5.11,5.11,0,0,1,2.1-.39,4.24,4.24,0,0,1,2.39.59,3,3,0,0,1,1.17,1.33,3.5,3.5,0,0,1,.31,1.38,4.5,4.5,0,0,1-.85,2.55A19.78,19.78,0,0,1,434,55.08l-.59.57-1.18,1.09-.8.74Z"/><path class="cls-1" d="M451,53.07a13.18,13.18,0,0,1-.16,2.27,6.27,6.27,0,0,1-.47,1.56,5.14,5.14,0,0,1-.77,1.15,3.68,3.68,0,0,1-2.83,1.34A3.79,3.79,0,0,1,444,58.1a5.25,5.25,0,0,1-1-1.9,9.47,9.47,0,0,1-.39-2.9,16.69,16.69,0,0,1,.17-2.57,6.59,6.59,0,0,1,.41-1.54,6,6,0,0,1,.59-1,3.6,3.6,0,0,1,3.06-1.64,3.54,3.54,0,0,1,3.07,1.64,6,6,0,0,1,.84,1.78A11.33,11.33,0,0,1,451,53.07ZM448.49,53V51.73a17.5,17.5,0,0,0-.11-2.26A3.4,3.4,0,0,0,447.9,48a1.39,1.39,0,0,0-2.29.05,4,4,0,0,0-.46,1.74c-.07.74-.1,1.79-.1,3.16s0,2.37.1,3.11a4.31,4.31,0,0,0,.46,1.77,1.24,1.24,0,0,0,1.16.64,1.26,1.26,0,0,0,1-.37,2.23,2.23,0,0,0,.53-1,8.33,8.33,0,0,0,.2-1.38c0-.48,0-1.15,0-2Z"/><path class="cls-1" d="M463,59.1h-5.76v-.9h.44a1.93,1.93,0,0,0,.84-.13.57.57,0,0,0,.32-.38,3.75,3.75,0,0,0,.06-.79V49.63a2.76,2.76,0,0,0-.09-.82.64.64,0,0,0-.42-.36,3.46,3.46,0,0,0-1-.1h-.33v-.86a20.36,20.36,0,0,0,2.24-.4,4,4,0,0,0,1.17-.57h.88V57a1.4,1.4,0,0,0,.23.91,1.16,1.16,0,0,0,.88.25H463Z"/><path class="cls-1" d="M477.83,59.1h-5.76v-.9h.32a3,3,0,0,0,1-.11.55.55,0,0,0,.39-.36,3.22,3.22,0,0,0,.07-.83V55.05h-4.48V53.84l5.49-7.32h1.26V54h1.71v1.08h-1.71V56.9a2.63,2.63,0,0,0,.1.87.52.52,0,0,0,.38.35,3.5,3.5,0,0,0,.93.08h.3Zm-4-5.13V49.3L470.37,54Z"/><polygon class="cls-1" points="743.26 198.18 0 198.18 0 196.27 743.26 196.27 743.26 198.18 743.26 198.18"/><polygon class="cls-1" points="743.26 85.78 0 85.78 0 83.86 743.26 83.86 743.26 85.78 743.26 85.78"/></g></g></svg>